# xmcd
#
# Track frame offsets:
#	150
#	12377
#	25040
#	37214
#	50448
#	61801
#	74473
#	88010
#	99826
#	112552
#	125094
#	139361
#	150630
#	163388
#	176626
#	188950
#	200312
#	212248
#	224440
#	236568
#
# Disc length: 3277 seconds
# Revision: 0
# Processed by: cddbd v1.5.2PL0 Copyright (c) Steve Scherf et al.
# Submitted via: dBpowerAMP V12.0
#
DISCID=230ccb14
DTITLE=Big Joe Turner - The Absolutely Essential Collection CD2
DYEAR=2016
DGENRE=Blues
TTITLE0=Honey Hush
TTITLE1=Flip, Flop And Fly
TTITLE2=Poor Lover's Blues
TTITLE3=Sweet Sixteen
TTITLE4=Don't You Cry
TTITLE5=Baby I Still Want You
TTITLE6=Still In Love
TTITLE7=Crawdad Hole
TTITLE8=T.V. Mama
TTITLE9=Oke-She-Moke-She-Pop
TTITLE10=You Know I Love You
TTITLE11=Well Alright
TTITLE12=Married Woman
TTITLE13=Ti-Ri-Lee
TTITLE14=Hide And Seek
TTITLE15=Midnight Cannonball
TTITLE16=The Chicken And The Hawk
TTITLE17=Morning, Noon And Night
TTITLE18=Boogie Woogie Country Girl
TTITLE19=Rock A While
EXTD=
EXTT0=
EXTT1=
EXTT2=
EXTT3=
EXTT4=
EXTT5=
EXTT6=
EXTT7=
EXTT8=
EXTT9=
EXTT10=
EXTT11=
EXTT12=
EXTT13=
EXTT14=
EXTT15=
EXTT16=
EXTT17=
EXTT18=
EXTT19=
PLAYORDER=
